# xmcd
#
# Track frame offsets: 
#        150
#        10575
#        22650
#        33750
#        46900
#        58050
#        68925
#        80550
#        90900
#        102600
#        113700
#        124425
#        135750
#        147400
#
# Disc length: 2203 seconds
#
# Revision: 0
# Processed by: cddbd v1.5PL3 Copyright (c) Steve Scherf et al.
# Submitted via: ExactAudioCopy v0.95a4
#
DISCID=ad08990e
DTITLE=Brook Benton - Greatest Hits
DYEAR=1900
DGENRE=Blues
TTITLE0=Revenge
TTITLE1=The Boll Weevil Song
TTITLE2=It's Just A Matter Of Time
TTITLE3=Baby (You've Got What It Takes)
TTITLE4=So Many Ways
TTITLE5=A Rockin' Good Way (To Mess Around And Fall In Love)
TTITLE6=Kiddio
TTITLE7=Lie To Me
TTITLE8=Think Twice
TTITLE9=Endlessly
TTITLE10=Thank You Pretty Baby
TTITLE11=The Same One
TTITLE12=Hotel Happiness
TTITLE13=A Rainy Night In Georgia
EXTD=
EXTT0=
EXTT1=
EXTT2=
EXTT3=
EXTT4=
EXTT5=
EXTT6=
EXTT7=
EXTT8=
EXTT9=
EXTT10=
EXTT11=
EXTT12=
EXTT13=
PLAYORDER=
